<mxfile host="app.diagrams.net" modified="2020-11-19T00:55:20.021Z" agent="5.0 (Windows)" etag="j_VREpZQCPO02xgFf5CF" version="13.10.0" type="github">
  <diagram id="C5RBs43oDa-KdzZeNtuy" name="Page-1">
    <mxGraphModel dx="870" dy="623" grid="1" gridSize="10" guides="1" tooltips="1" connect="1" arrows="1" fold="1" page="1" pageScale="1" pageWidth="827" pageHeight="1169" math="0" shadow="0">
      <root>
        <mxCell id="WIyWlLk6GJQsqaUBKTNV-0" />
        <mxCell id="WIyWlLk6GJQsqaUBKTNV-1" parent="WIyWlLk6GJQsqaUBKTNV-0" />
        <mxCell id="ob5xV3j9xzZ8WgU1-PhJ-2" value="" style="edgeStyle=orthogonalEdgeStyle;rounded=0;orthogonalLoop=1;jettySize=auto;html=1;" edge="1" parent="WIyWlLk6GJQsqaUBKTNV-1" source="ob5xV3j9xzZ8WgU1-PhJ-0" target="ob5xV3j9xzZ8WgU1-PhJ-1">
          <mxGeometry relative="1" as="geometry" />
        </mxCell>
        <mxCell id="ob5xV3j9xzZ8WgU1-PhJ-0" value="Play Function starts" style="strokeWidth=2;html=1;shape=mxgraph.flowchart.terminator;whiteSpace=wrap;" vertex="1" parent="WIyWlLk6GJQsqaUBKTNV-1">
          <mxGeometry x="364" y="20" width="100" height="60" as="geometry" />
        </mxCell>
        <mxCell id="ob5xV3j9xzZ8WgU1-PhJ-4" value="" style="edgeStyle=orthogonalEdgeStyle;rounded=0;orthogonalLoop=1;jettySize=auto;html=1;" edge="1" parent="WIyWlLk6GJQsqaUBKTNV-1" source="ob5xV3j9xzZ8WgU1-PhJ-1" target="ob5xV3j9xzZ8WgU1-PhJ-3">
          <mxGeometry relative="1" as="geometry" />
        </mxCell>
        <mxCell id="ob5xV3j9xzZ8WgU1-PhJ-1" value="&lt;div&gt;Current GPS&lt;/div&gt;&lt;div&gt; Loc&lt;/div&gt;" style="shape=parallelogram;html=1;strokeWidth=2;perimeter=parallelogramPerimeter;whiteSpace=wrap;rounded=1;arcSize=12;size=0.23;" vertex="1" parent="WIyWlLk6GJQsqaUBKTNV-1">
          <mxGeometry x="364" y="130" width="100" height="60" as="geometry" />
        </mxCell>
        <mxCell id="ob5xV3j9xzZ8WgU1-PhJ-6" value="" style="edgeStyle=orthogonalEdgeStyle;rounded=0;orthogonalLoop=1;jettySize=auto;html=1;" edge="1" parent="WIyWlLk6GJQsqaUBKTNV-1" source="ob5xV3j9xzZ8WgU1-PhJ-3" target="ob5xV3j9xzZ8WgU1-PhJ-5">
          <mxGeometry relative="1" as="geometry" />
        </mxCell>
        <mxCell id="ob5xV3j9xzZ8WgU1-PhJ-3" value="Set Loc = GPS location" style="rounded=1;whiteSpace=wrap;html=1;absoluteArcSize=1;arcSize=14;strokeWidth=2;" vertex="1" parent="WIyWlLk6GJQsqaUBKTNV-1">
          <mxGeometry x="364" y="230" width="100" height="70" as="geometry" />
        </mxCell>
        <mxCell id="ob5xV3j9xzZ8WgU1-PhJ-8" value="" style="edgeStyle=orthogonalEdgeStyle;rounded=0;orthogonalLoop=1;jettySize=auto;html=1;" edge="1" parent="WIyWlLk6GJQsqaUBKTNV-1" source="ob5xV3j9xzZ8WgU1-PhJ-5" target="ob5xV3j9xzZ8WgU1-PhJ-7">
          <mxGeometry relative="1" as="geometry" />
        </mxCell>
        <mxCell id="ob5xV3j9xzZ8WgU1-PhJ-5" value="Loc = Waypoint1?" style="strokeWidth=2;html=1;shape=mxgraph.flowchart.decision;whiteSpace=wrap;" vertex="1" parent="WIyWlLk6GJQsqaUBKTNV-1">
          <mxGeometry x="356" y="350" width="116" height="110" as="geometry" />
        </mxCell>
        <mxCell id="ob5xV3j9xzZ8WgU1-PhJ-7" value="Play track 1" style="whiteSpace=wrap;html=1;strokeWidth=2;" vertex="1" parent="WIyWlLk6GJQsqaUBKTNV-1">
          <mxGeometry x="354" y="510" width="120" height="60" as="geometry" />
        </mxCell>
      </root>
    </mxGraphModel>
  </diagram>
</mxfile>
